<?xml version="1.0" encoding="UTF-8"?>
<svg version="1.1" viewBox="0 0 2048 2037" width="1280" height="1280" xmlns="http://www.w3.org/2000/svg">
<path transform="translate(0)" d="m0 0h2048v2037h-2048z" fill="#272626"/>
<path transform="translate(768,516)" d="m0 0h32l2 1h15l7-1 9 2 16-1 20-1h33l9 3 5 6 5 15 5 12 5 15 5 9-1 9 3 6 3 3 5 14 7 19 11 29 11 30v9l-4 5-5 2-25 1 1 23v12l-3 1 2 29 2 46-1 22-2 16v10l1 11 27-2h18l25 1 6 4 2 4v7l-3 5-5 3-15 2h-11l1 11v18l8-1h10l13 1 7 3 4 6 1 3v21l-3 12-4 6-5 2-6 1h-23l-29-1h-15l-1 11v46l1 28v37l-1 28v33l1 8-1 51-1 8 48 1 7 6 1 2v8l-5 7-5 2h-74l-165-1-104-1h-43l-308-1-8-2-2-3v-8l5-5 43-1 1-117v-141l-78-1-4-2-2-5v-28l2-7 5-1h34l-1-38-30-1-5-5v-6l4-5 74-1 1-176-25 1-14-1-4-2-1-2v-7l10-24 8-19 15-36 15-35 8-19 11-26 4-8 4-2 236-1h73l2-1h80z" fill="#F5C31E"/>
<path transform="translate(1181,185)" d="m0 0h224l7 5 3 6v37l-2 9-5 4-7 2h-4l1 19 1 7v31l-1 5v17l2 4v6l15 2 11 4 10 5 23 9 9 7 2 3h-5l16 10 5 10 5 5 10 11 8 14 4 13 2 5v6l3 4 2 17 2 6-3 5v6l2 4v110l1 4v9h-3l2 32 1 6v25l-2 16 1 16 1 11v35l-1 15 2 18 1 49-1 6 1 11-5 16-6 12-4 7-10 7-11 7-10 2-5 2-14 2-1 12-6 12-6 5-4 2-12 1h-16l-9-4-6-7-3-8v-11l-3-3-10 1h-91l-20-1h-33l-5-1h-47l-1 14-3 8-7 7-6 2h-23l-10-4-5-4-4-8v-17l-5 1-16-3-13-5-12-9-6-7-6-11-3-9-2-13v-78l1-295 3-22 5-17 7-16 8-14 13-16 14-14 17-12 15-8 24-8 16-3 1-90-10-1-6-4-3-4v-43l5-8z" fill="#FCFCFA"/>
<path transform="translate(1451,954)" d="m0 0 6 1 5 5v6l-29 29-8 7-19 19 19-1 40-40 7-5 5 1 5 5 1 4-7 9-26 26h20l7-5 6-7h2l2-4 7-6 7 1 4 5-1 7-7 8 4 1h22l11 4 8 7 4 6 2 6 1 22 8-7 10-10 6-4 5-1 8 3 4 5 3 7 1 12-2 24-4 19-8 20-7 13-10 13-11 12h-2v2h-2l-1 7-1 69-1 22-3 9-7 9-8 7-6 7-8 7-15 15-7 8-3 3h-2l-2 4-7 7-8 7-10 11h-2l-2 4-7 7-8 7-3 4h-2l-2 4-16 16-5 6-8 7-23 23-8 7-7 7-14 16-12 13-8 7-11 9-3 3-3 7-27 27-8 6-8 10-4 6-5 6h-2v2h-2l-2 4-4 2 3-8-8 10-6 8-5 3-6 5-3 5-4 4-7 9-12 12-9 7-4 3-6 2-4 2-10-1h-12l-4-1-1-3-6-1-3 2-7-1-53-6-26-4-21-2-3-1-16-1-3-3-22-1-18-2-9-4-7-7-4-8-1-3-1-18-2-5-3-19-2-10-3-34-5-28-5-33-2-7v-10l-2-10-2-22v-12l2-7 4-6 10-8 17-16 32-32 7-9 13-13 6-7 8-7 17-16 4-5 5-3 8-10 10-9 58-58 8-7 13-12 9-10 8-7 6-5 7-8 6-5 32-32 7-8 13-13 8-7 12-11 7-8 15-14 9-6 12-2 77-1 8-7 12-12 11-9 26-26 8-7z" fill="#FCFCFB"/>
<path transform="translate(597,974)" d="m0 0h6l2 4 7-2h22l15 1h20l10-1v2h5l-3-1v-2h10l1 1h9l10-2h5l-1 2-6 2h21l10-2 8-1 4 2h31l6 1 1-4h18l3 2h12l18-1 2-1h47l31 1v259h-204l-1-1 1-90v-77l-2-14-5-13-6-11-7-8-10-8-12-7-13-5-10-2h-28l-16 3-19 9-11 8-10 13-9 16-3 10v31l-1 5v53l-1 22v32l-1 5-1 26h-57l-39-1-14-1h-86l-1-5 1-33-1-25-1-8v-46l2-20v-8l-1-4v-49l-1-43-1-4v-7h34l19-1 1-1h6l2 1 15 1h18l25-2h9l2 2h112z" fill="#272626"/>
<path transform="translate(352,698)" d="m0 0 3 1 1 3h14l6-1 18 2 16-2 3 2-1-3 4-1 5 3 4-1 7-2h6l-2 2-3 1 1 1h11l5-2h11l2 1h19l7 1 1-4h8l7 2h11l12-1 1-1h392l1 1v30l-1 78-1 45-1 20-1 1h-162l-10-1-34-1h-25l-18 1-3-1h-22l-29-1h-175l-3-1-76 2-7 1-1-22-2-20 2-10v-15l-3-24 2-1v-71l-1-11z" fill="#272626"/>
<path transform="translate(372,536)" d="m0 0h41l138 2h70l16-1 4 1h17l16-1 12 2h14l5-1h11l8 1h30l3 1h22l8-1h15l7 1 15-1 3 1h18l21 2 28-1 2 1 9 24 8 25 5 13 6 13 11 30 3 9 2 9 5 10v2l-9 1-30 1-5 1h-37l-16 1-6-1h-21l-14 1-1 1h-6l-1-3-7 1h-75l-1 3h-4v-4l-10 2-4-1-7 1-10-1h-16l-7 1h-8l-5-1-5 2h-7l2-4-14 1-5 2h-9l-3-1h-18l-7-1v3l-6 1-8-1-1-1h-10l-19 2h-225l1-6 13-30 13-31 19-45 14-33z" fill="#272626"/>
<path transform="translate(1081,1256)" d="m0 0 4 5 5 5 12 10 4 2 1 5 10 9 30 30 5 3 3 5 25 25 6 4 4 5 7 3-4 3v2l5 2 10 7 4 6 8 7 3 3h4l6 9v2l4 2 16 14 7 7 7 8 12 12 8 7 27 27-2 4-8 7-5 5-6 7-8 7-9 9-1 2h-2l-2 4-3 3h-2l-2 4-12 11-47 47-7 8-7 7h-2v2l-9 6-20-2-106-14-59-8-13-2-5-5-3-14-7-65-2-22-2-13-3-31-2-26-2-13-1-14 6-8 7-7 9-7 11-12 7-8 15-15 10-8 3-5 8-7 11-11 1-2h2l2-4 9-10 5-6 9-7 10-14z" fill="#272626"/>
<path transform="translate(1192,354)" d="m0 0h200l18 3 17 6 17 9 16 12 11 11-2 4-5 4-11 14-9 15-6 13-6 20-2 9-1 11-1 44v27l-1 25v46h-2l-7-8-12-13-14-10-19-11-9-4-6-2-15-6-16-4-5-1h-10l-6-1-38-1-2 2-15 2-6 2-7 2-16 7-7 3-7 5-13 6-8 7-11 9-11 8-5 8h-1l-1-6v-55l-3-1 1-4 2-1-1-22 1-4v-10l-2-8 1-12-2-7 2-1 3 1-4-16-1-14-4-13-4-5-3-12-6-10-14-19-9-10-1-3 9-10 9-8 13-8 14-7 20-6z" fill="#272626"/>
<path transform="translate(1289,586)" d="m0 0h10l18 2 14 3 16 5 19 8 18 11 14 11 13 13 10 15 6 13 2 7v80l-1 16h-51l-48-1-28-1h-17l-23-1-11-1h-36l-11-1-11 1-4 1-19-1-8-1-1-3v-8l-1-9v-6l-1-2 1-17-2-9v-5l2-7-1-13h-2l2-5 3-16 11-20h2l-1-6 5 2 2-5 5-6 8-5 7-8 6-2 1-5h2v4l4-2 5-6 11-4 5-2 2-4h8l13-6 11-2z" fill="#272626"/>
<path transform="translate(623,1016)" d="m0 0h25l15 4 8 4 10 8 7 8 6 12 4 13-1 20-1 7v35l-1 5v9l1 5v16l-1 3 1 31 1 11-1 5 2 7v6l-3 7h-64l-12 1-7-1-5 1h-12l-1 1h-6l-1-1-13 1-1-6 1-168 4-12 7-11 8-8 13-8 12-4z" fill="#272626"/>
<path transform="translate(1165,788)" d="m0 0h50l5 1h18l11 1 4-1 11 2 5-1h22l5 1 7-1 9 2h27l5-1 17 1 13-2 6 1h11l8 1 25-1 2 4-1 12 2 10-1 6v27l3 14 4 11 1 4h-2l-1-2h-13l-7-1-9 2-4-1-5 2-4 1 1-2h2l-1-3-6-1-2 4-5-1-15-1v4l-5-1-3-2-11 2-5 1-14-1h-10l-9 1h-144l-17-1 7-14 3-12 1-19 1-45z" fill="#272626"/>
<path transform="translate(1102,410)" d="m0 0 4 2 8 9 10 15 6 13 5 14 3 16 1 21-1 55-1 26v30l-1 24-1 25v45l-1 5 1 18v27l-1 13 1 4-1 7 1 23 1 19v14l1 6v8l-4 10-3 10-4 6-3 1h-7l-10-3-11-9-6-7-2-4-3-19 1-15-2-7h2v-2l-2-1 1-6-2-7h4l-1-12h-2l1-4 1-20-3-1 1-8v-14l-1-3v-260l2-20 5-19 7-16z" fill="#272626"/>
<path transform="translate(1480,411)" d="m0 0h3l-1 6 1 3h2l6 11 7 24 1 8 1 19-1 14v11l1 2 1 6 2 5h-2l-1-2h-2l2 11 1 4-1 3-1 19 3 1v6l-1 2v10l1 7v262l-3 12-6 9-5 5-8 6-13 4h-6l-5-4-7-11-3-9-1-10 1-123 1-28v-29l1-24 1-14v-46l1-3v-20l-1-11v-25l1-14v-18l1-17 1-9 3-9 4-8 5-14 5-5 5-6 5-9z" fill="#272626"/>
<path transform="translate(799,998)" d="m0 0h15l16 4 14 7 12 11 6 8 7 14 3 14 1 29v10l1 9h-2v4h2l1 2v37l-3 7-2 2-13 2h-20l-3-1-9 2-7-2-3 2h-12l-10 1h-10l-8 1-2-1h-26l-8-5-3-4v-21l1-14 2-49 2-16 3-11 7-14 11-12 10-7 13-6z" fill="#F6C41E"/>
<path transform="translate(452,997)" d="m0 0h16l17 3 17 9 12 11 7 11 4 8 4 16v95l-4 4-4 1-39 1-6 1-6-1-2 1-18 1-7-1-8 1h-26l-9-2-5-6v-8l-1-2v-8l1-6-1-2v-13l-2-18 1-13v-12l-1-10 5-19 6-12 9-10 9-8 14-8 10-3z" fill="#F6C41E"/>
<path transform="translate(1138,1198)" d="m0 0 7 6 31 31 5 6 18 18 7 8 15 16 18 18 7 8 9 10 4 5 7 6 7 8 6 5 9 11 13 11 10 10 7 9 5 4v2l4 2v2l4 2 12 11 5 3 7 9 9 6 2 3-8 12-4 1-11 13-8 7-8 10-1 2h-2l-1-5-14-14-10-9-5-2 3-3-11-7-4-6-6-5-5-2-4-7-12-9-14-15-17-16-130-130 6-7z" fill="#272626"/>
<path transform="translate(1195,1145)" d="m0 0 5 5 9 8 4 4h4l-1 4 10 9 5 7 9 3v6l8 1v2l-4 1 2 4 9 2 1 7 4 2 4 4h6l3 8 11 8 13 13 4 5 10 8 7 8 9 9 8 7 92 92-3 5-8 7-14 14-8 7-10 10-4-1-9-10-18-18-8-7-14-15-17-17-7-8-10-10-7-8-12-13-8-7-12-13-8-9-7-8-16-15-9-9-7-8-13-11-8-8-6-8-8-7-3-3v-2l-4-2-10-9-4-4 6-5 6-9 8-4 8-11 1-4 4 1z" fill="#272626"/>
<path transform="translate(1231,225)" d="m0 0 88 1 21 1 13 4 5 4 3 9 8 7 7 2v24l1 6v13l-1 9v12l2 16-9 3-2-1h-9l-6 1-7-1-6 1-7-1-7 1-3-1-3 2-6-2-4 1-7-1-9 1h-4v-2h-4l-1 2-5 1-1-1h-7l-4 2h-3l-1-2-11 2h-47v-91l13-2 3-6 4-11 2-2z" fill="#272626"/>
<path transform="translate(628,719)" d="m0 0h13l14 2 12 5 9 4 3 3v2l5 2 5 4 7 8 6 9 4 9 3 23v19l-2 34-1 12-4 4-3 1h-25l-63-1-39-1-4-3-1-8v-64l2-12 5-14 7-10 9-11 12-9 7-4 11-3z" fill="#F6C41E"/>
<path transform="translate(452,719)" d="m0 0h12l14 1 12 4 5 3 8 3 5 6 6 3 9 10 5 7 5 12 2 18 1 12-1 27-2 29-1 4-6 2h-23l-74-1-31-1-4-4v-77l6-18 6-10 11-13 11-9 7-4 10-2z" fill="#F6C41E"/>
<path transform="translate(805,719)" d="m0 0h13l13 1 13 4 14 7 2 4 5 2 10 10 7 10 4 9 4 26-1 34-3 30-3 3-2 1h-27l-69-1-33-1-4-4v-76l5-17 6-11 12-14 11-9 7-4z" fill="#F6C41E"/>
<path transform="translate(1521,1037)" d="m0 0 6 1 5 7v38l-5 6-8 7-11 11-8 7-11 11-8 7-15 14-12 13-8 7-4 5-8 7-5 5-10 9-17 16-7 5-7 9-7 6-4 9v7l-8 7-14 13-1 2-4-2-11-8-10-10-6-8-8-7-7-7-6-5v-2l6-4 7-10 1-2 6-3 4-5 2-4 2-2-1-2h5l6-7 2-4 20 4 2-4v5l22-3 8-7 4-1 1-5 3 1 1 3 3-3v-6l2-2 5-2 5-5 1-7 7-2 8-13 12-11 10-11 1-2h2l2-4 12-12 7-8 14-14 7-8 13-13 5-6z" fill="#272626"/>
<path transform="translate(1529,1193)" d="m0 0h1v60l-1 17-7 9-15 14-41 41-8 7-7 7-8 7-4 3-8-7-9-11-12-13-15-16-4-6 9-7 7-7 8-12 6 2 8 5 8-1v-2h2v2l5-2 14-14 7-8 8-8 4-8 3-1v3l3-3 1-4 7-6 2-5 5-3 4-6 10-9 14-16z" fill="#272626"/>
<path transform="translate(1342,1038)" d="m0 0h20l-1 3-8 7-13 13-8 7-11 11h-2l-2 4-7 9-4 11-1 13 3 17 1 6-16 13-10 9-14 12-6 4-4-2-5-4-6-8-9-7-6-7v-2l-4-2-7-7-10-8 1-4 6-3 3-6 10-9 13-14 8-7 5-7 6-3 2-5 5-3 3-7 4-2 6-8 14-13z" fill="#272626"/>
<path transform="translate(1575,1063)" d="m0 0 3 1-2 26-4 19-6 15-6 11-8 11-8 9-8 7-7 7-8 7-11 10-12 12-8 7-11 9-17 17-8 7-6 8-7 7-8 7-4-2-10-7-5-6-5-3-3-5 1-5 5-1 2-4 11-11 7-8 5-5 8-7 6-7 7-2-1-6 6-3 3-3h2l-1-5 6-3 7-10 10-9 12-13 21-21 8-7 10-11 8-7 23-23z" fill="#272626"/>
<path transform="translate(962,1728)" d="m0 0 11 1 9 2 10 7 12 20 1 10v19l-5 13-6 11-8 7-12 5-13 2-13-3-9-5-3-2v16l-1 22-1 2h-14l-1-1-1-90-2-6 2-4-3-4 1-7 1-2-3-1-1-4 2-4 5-1-1 4h2l1-3 2-1h7l5 2-1 5-2 4 5-5 7-3 5-4h8z" fill="#FCFCFA"/>
<path transform="translate(791,1731)" d="m0 0 12 1 9 4 6 4 8 10 5 12 3 19v8l-5 13-5 8-9 8-9 4-9 2h-15l-13-4-9-6-8-9-5-13-1-4v-21l4-12 6-9 9-8 11-5z" fill="#FCFCFA"/>
<path transform="translate(637,1698)" d="m0 0 16 1 2 5v45l55 1v-49h15l1 10 1 73-1 12 3 13-2 2v5l2 2-1 5h-10l-3-1-4 2h-6v-7l3-1v2h2l-3-6v-7l-1-7 1-16-1-14h-12l-9-1-3 1h-8l-7-1-7 1h-4l2 16v18l-1 21-3 2-11 1h-11l-1-43 1-3 1-28v-23l1-20 2-10z" fill="#FCFCFA"/>
<path transform="translate(1141,1729)" d="m0 0 6 1 1-1h7l1 1 9 1 9 6 5 5 4 7 2 15v31l-1 8v11l1 6-1 2h-15l-3-1-1-2v-6l-11 7-5 2-14 1-10-4-7-6-4-8-1-3v-10l4-10 5-6 10-6 10-3 22-3-1-7-3-6-6-5h-13l-10 4-3 2-6 1-3-3-2-7v-5l2-2 6-2 7-3z" fill="#FCFCFA"/>
<path transform="translate(1335,453)" d="m0 0 4 1 5 1 2-1h15l3 2v-2h17l5-1 4 2h6l4 2 1 8-2 9-2 2-19 3h-30l-5 1-4-1-27-1-12-1h-14l-26-2-69-2-5-6 1-6 5-4 119-1 1-1h5l4 1 2-2h6 4z" fill="#FCFCFA"/>
<path transform="translate(1336,1733)" d="m0 0h18l2 1 15 43 6 18 1 4 2 1 1-7 19-57 3-2h15l-3 9-8 23-7 18-3 9-1 4-1 6-2 3v7l-5 1-1 9-8 14-8 11-11 9-8 4-3 2h-5l-1-4-1-5-5-9 5-3 7-4 8-8 8-11-2-7-5-12-8-22-7-21-7-20z" fill="#FCFCFA"/>
<path transform="translate(1340,1086)" d="m0 0 5 1 6 8 5 5 6 7 9 7 13 12 11 9 1 4 2 1-9 11-8 6-6 2h-16l-11-4-6-4-10-9-6-10-3-8-1-4v-12l3-8 9-9z" fill="#272626"/>
<path transform="translate(1304,1710)" d="m0 0 3 1v23h22l1 1v11l-1 1-19 1 1 16-1 3 1 8v21l2 7 7 3 4-2h6l3 7 1 12-3 2-6 2-22-1-6-4-6-7-4-9 1-34 2-24h-13l-1-7 1-8 3-1 11 1 1-19 9-3z" fill="#FCFCFA"/>
<path transform="translate(1076,1710)" d="m0 0 4 1v23h22l1 5v6l-1 2h-19l1 17-1 3 1 32 2 4 3 2 14-1 2 3 2 11v5l-7 3-8 1-16-1-9-7-4-6-3-7 1-32 2-26h-13l-1-1 1-14 2-1 12 1v-12l1-7 9-3z" fill="#FCFCFA"/>
<path transform="translate(956,947)" d="m0 0 50 1 1 1-1 8h-63l-60-1-129-1-10 1h-8l-2-1h-14l-14 1-8-1h-35l-13-1h-30l-9-1h-15l-8 1-6-2v-4h14l3 1h10l13-1z" fill="#272626"/>
<path transform="translate(865,1729)" d="m0 0h3v3l6-3 13 2 12 4-1 7-3 10h-3l-11-4-12 1-2 4v7l5 3 8 3 11 6 7 6 4 10v12l-3 9-6 7-7 4-7 2-14 1-12-2-9-4-1-5 3-8 6 2 10 3h12l6-3 3-5v-7l-4-6-16-8-10-6-6-7-2-6v-9l4-10 9-9 5-2z" fill="#FCFCFA"/>
<path transform="translate(1204,1694)" d="m0 0h16l1 1 1 72 2 10v45l-1 1-19 1-2-1-2-7v-46l1-13 1-15 1-34z" fill="#FCFCF9"/>
<path transform="translate(1718,905)" d="m0 0h7l7 6 1 3v29l1 16-3 38-2 10-4 5-2 1h-8l-11-3-3-6-1-9 6-27 3-25 2-29 3-6z" fill="#FCFCFB"/>
<path transform="translate(540,1408)" d="m0 0 9 2 7 5 7 8 22 22 14 11 16 13 3 4v7l-5 6-6 2-10-5-18-13-12-7-16-13-14-11-8-7-2-4v-7l7-9z" fill="#FCFCFB"/>
<path transform="translate(825,1567)" d="m0 0 11 1 16 6 19 6 26 6 18 4 5 5 1 7-4 7-2 1h-12l-20-3-16-1-42-9-7-3-4-5v-10l5-10z" fill="#FCFCFA"/>
<path transform="translate(1695,1068)" d="m0 0h8l7 5 1 2-1 10-10 37-4 18-7 20-4 8-7 3h-8l-7-3-5-8 3-12 7-17 8-17 8-22 6-18z" fill="#FCFCFB"/>
<path transform="translate(628,300)" d="m0 0h7l6 3 4 5v10l-3 9-24 13-15 9-17 12-13 10-7 4-7-1-5-6-1-7 3-5 11-9 14-12 6-5 5-5 11-9 14-10 8-5z" fill="#FCFCFB"/>
<path transform="translate(780,226)" d="m0 0 7 2 5 6 1 6-3 12-8 4-27 8-21 7-27 12-8 2-6-4-3-6 1-6 5-5 23-12 11-6 16-8 24-10z" fill="#FCFCFB"/>
<path transform="translate(935,189)" d="m0 0h9l7 5 2 4-2 14-4 5-8 2-38 2-36 6-5 1h-8l-5-4-2-4v-6l4-5 11-4 21-5 12-4 27-5z" fill="#FCFCFB"/>
<path transform="translate(671,1505)" d="m0 0h10l12 7 10 7 19 11 35 17 5 5v7l-4 6-3 2-9-1-25-10-10-3-26-12-19-9-4-5-1-2v-7l7-11z" fill="#FCFCFB"/>
<path transform="translate(1636,1218)" d="m0 0h11l8 6 2 4v8l-9 17-8 11-12 16-13 18-8 11-5 4h-8l-5-5-2-4 1-6 13-20 9-16 13-27 7-12z" fill="#FCFCFB"/>
<path transform="translate(1543,1357)" d="m0 0h8l7 6 1 6-3 5-9 11-9 9-8 10h-2l-2 4-8 11-8 7-5 5-10 9-4 1-9-2-7-7-2-5 1-7 11-12 17-13 15-13 8-7 5-6 4-4h2l2-4z" fill="#FCFCFB"/>
<path transform="translate(499,407)" d="m0 0h10l7 4 4 6 1 5-2 5-9 11-12 12-8 7-14 14-11 14-5 6-7 4-7-1-5-6-1-6 6-10 11-14 12-16 7-11 11-12 7-8z" fill="#FCFCFA"/>
<path transform="translate(1703,738)" d="m0 0 9 1 5 4 6 12 2 9 1 7 2 12 2 41v12l-4 6-4 2-9-1-4-5-2-9-4-30-5-24-6-20v-7l5-7z" fill="#FCFCFA"/>
<path transform="translate(1647,583)" d="m0 0h10l8 7 7 10 5 12 5 13 7 25 6 23-2 6-3 3-3 1h-8l-5-4-14-37-11-23-8-12-3-8 1-8 6-7z" fill="#FCFCFB"/>
<path transform="translate(1560,444)" d="m0 0h7l8 5 9 8 7 10 8 11 8 15 13 23 3 6v6l-4 5-6 3-5-1-7-6-9-14-12-17-11-14-2-4-4-2-5-4-2-4-5-5-2-5 1-6 4-7z" fill="#FCFCFB"/>
<path transform="translate(784,1745)" d="m0 0h10l7 3 5 5 5 8 2 7v17l-4 11-5 7-10 5h-9l-8-4-8-11-3-10-1-4v-11l3-9 6-8 7-5z" fill="#272626"/>
<path transform="translate(954,1746)" d="m0 0 10 1 8 5 6 11 2 9v18l-5 10-8 6-7 2h-9l-8-4-5-6-3-7-1-8v-9l2-12 4-7 8-7z" fill="#272626"/>
<path transform="translate(1043,186)" d="m0 0h17l23 1 9 1 4 4 2 10-1 7-8 7-2 1h-7l-19-4-19-2-21-1-7-2-5-5-1-5 3-6 4-3 3-1 19-1z" fill="#FCFCFB"/>
<path transform="translate(476,1087)" d="m0 0h34l1 38 1 3v9l-1 1h-39l1-17 2-33z" fill="#272626"/>
<path transform="translate(762,1087)" d="m0 0h33l1 35 2 10-1 5-2 1h-37l-1-4 2-26 1-17z" fill="#272626"/>
<path transform="translate(1254,1730)" d="m0 0 11 1 2 2 2 12-1 2v22l-2 21-1 29-2 2-15-1-1-1-1-42-2-16v-30z" fill="#FCFCF9"/>
<path transform="translate(419,1087)" d="m0 0h33l1 35 2 8v7l-4 1h-36v-11l2-33z" fill="#272626"/>
<path transform="translate(815,1082)" d="m0 0 37 2v10l-1 12v28l-2 1h-31l-3-1-1-51z" fill="#272626"/>
<path transform="translate(1018,1731)" d="m0 0h20l2 2 1 5v31l-3 31-1 20-1 1-15-1-1-1-1-35-1-18-2-12 1-22z" fill="#FCFCFA"/>
<path transform="translate(414,807)" d="m0 0 11 1h25l1 1v32l-1 1h-39l1-33z" fill="#272626"/>
<path transform="translate(767,807)" d="m0 0 11 1h26l1 1v33h-39l-2-1 2-32z" fill="#272626"/>
<path transform="translate(827,808)" d="m0 0h37l1 1v32l-2 1h-38v-13l1-20z" fill="#272626"/>
<path transform="translate(1481,1042)" d="m0 0h7l-2 4-5 5-9 10-12 13h-2l-2 4-4 5-3 6-4 4h-2l-2 4-15 16-7 8-5 4-4-1-9-8 1-4 14-12 12-11 13-13 13-10 8-8 9-7 8-8z" fill="#272626"/>
<path transform="translate(647,807)" d="m0 0 11 1 26 1v32l-1 1h-38l-1-1 1-21 1-12z" fill="#272626"/>
<path transform="translate(470,804)" d="m0 0 26 1 12 1 1 1-1 31-5 1h-23l-3 1h-7z" fill="#272626"/>
<path transform="translate(469,1327)" d="m0 0 5 1 5 5 6 7 12 22v7l-5 6-5 2-6-1-5-4-9-11-9-8-5-5-1-7 4-8 5-4z" fill="#FCFCFB"/>
<path transform="translate(615,803)" d="m0 0h10l2 1-2 33-1 1-37-2-1-32z" fill="#272626"/>
<path transform="translate(475,1020)" d="m0 0 5 1 18 8 7 7 6 12 2 10v7l-3 1-34-3 1-20-1-15z" fill="#272626"/>
<path transform="translate(450,1016)" d="m0 0h6l-3 34-2 10-16 1h-7l-10 1 1-10 4-16 7-9 8-6z" fill="#272626"/>
<path transform="translate(793,1016)" d="m0 0h5l-1 15-1 19-2 9-1 1-15 1h-7l-10 1-1-3 3-11 2-10 6-9 8-7z" fill="#272626"/>
<path transform="translate(474,745)" d="m0 0 13 5 9 6 5 5 5 8 4 11 1 7h-41l2-29 1-11z" fill="#272626"/>
<path transform="translate(819,1020)" d="m0 0 10 3 8 4 5 3 7 8 5 12 2 10v5l-26-1-11-1v-35l-1-6z" fill="#272626"/>
<path transform="translate(648,745)" d="m0 0 10 4 13 8 6 7 5 11 2 7v5h-40v-10l2-25z" fill="#272626"/>
<path transform="translate(828,746)" d="m0 0 9 2 16 10 7 10 5 16v3h-40v-13l2-27z" fill="#272626"/>
<path transform="translate(623,739)" d="m0 0h4l-2 34-1 7-3 2h-22l-3 1h-8l1-9 5-15 6-8 10-7z" fill="#272626"/>
<path transform="translate(1186,201)" d="m0 0 37 1 57 1-1 5-1 1h-26l-24 1-10 4-8 9-4 8h-20z" fill="#272626"/>
<path transform="translate(450,739)" d="m0 0h4l-3 39-2 4h-23l-5 1h-7l2-9 5-16 9-10 14-7z" fill="#272626"/>
<path transform="translate(804,739)" d="m0 0h4l-3 38-1 4-21 1-7 1h-8l1-6 6-18 4-6 8-7 11-5z" fill="#272626"/>
<path transform="translate(641,892)" d="m0 0h32l-1 15-1 18-2 1h-25l-1-1-1-25-2-4z" fill="#272626"/>
<path transform="translate(495,892)" d="m0 0h29l-1 13-1 20-1 1h-27l-1-27-2-3v-3z" fill="#272626"/>
<path transform="translate(890,892)" d="m0 0h31l-1 17-1 16-1 1h-26l-1-1v-24l-3-5v-3z" fill="#272626"/>
<path transform="translate(792,892)" d="m0 0h30l-1 13-1 16-1 5h-26l-1-1-1-25-1-1v-6z" fill="#272626"/>
<path transform="translate(840,892)" d="m0 0h31l1 4-1 5-2 24-1 1h-26l-1-7v-19l-2-7z" fill="#272626"/>
<path transform="translate(741,892)" d="m0 0h31l-1 19-1 14-2 1h-22l-4-1v-24l-2-3v-5z" fill="#272626"/>
<path transform="translate(592,892)" d="m0 0h31l1 2-2 16-1 15-1 1h-23l-4-1v-24l-2-3v-5z" fill="#272626"/>
<path transform="translate(394,892)" d="m0 0h30l1 3-1 6-2 25h-27l-1-26-2-4v-3z" fill="#272626"/>
<path transform="translate(692,892)" d="m0 0h30l-1 26-1 7-5 1h-22l-1-2v-23l-2-8z" fill="#272626"/>
<path transform="translate(443,892)" d="m0 0h32l-2 16-1 17-1 1-27-1v-24l-2-3v-5z" fill="#272626"/>
<path transform="translate(542,892)" d="m0 0h31v10l-2 23h-28v-25l-2-7z" fill="#272626"/>
<path transform="translate(1439,1041)" d="m0 0h6v3l-8 7-7 8-6 8-11 12-24 24-4-2-6-7 2-4 12-12 14-11 15-13 8-7 3-4z" fill="#272626"/>
<path transform="translate(956,897)" d="m0 0h5l1 18 3 15-1 1h-26l2-26 2-7z" fill="#272626"/>
<path transform="translate(1160,1776)" d="m0 0 5 1-2 16-3 6-5 4-7 2h-8l-7-3-1-2 1-9 4-9 8-4z" fill="#272626"/>
<path transform="translate(356,895)" d="m0 0h11l7 2 1 8v25h-10l-12-1 2-17v-16z" fill="#272626"/>
<path transform="translate(1320,1160)" d="m0 0 2 1-1 5-12 13-5 5-4 8-11 12-4 4-12-12 4-4 11-8 7-7 11-8z" fill="#272626"/>
<path transform="translate(1356,206)" d="m0 0h37l1 2-1 6v12l-1 2-15-1-1-6-10-5-4-4-8-4z" fill="#272626"/>
<path transform="translate(306,892)" d="m0 0h19l-1 14-2 14-2 5-10 1-1-1v-17l-3-7z" fill="#272626"/>
<path transform="translate(1398,1041)" d="m0 0 2 2-5 4-2 4-4 6-6 7h-2l-2 4-11 11h-3l-6-10 2-4 8-7 16-11 6-4h2z" fill="#272626"/>
<path transform="translate(1023,1701)" d="m0 0h9l5 5 2 4v8l-10 6h-8l-5-4-1-9 3-6z" fill="#FCFCF9"/>
<path transform="translate(1250,1701)" d="m0 0h9l5 5 2 4v8l-7 5-8 2-5-3-3-3-1-7 4-8z" fill="#FCFCFB"/>
<path transform="translate(1394,1256)" d="m0 0 5 1 4 4-2 4-12 11-10 8-5 3-5-1v-3l11-9 3-7z" fill="#272626"/>
<path transform="translate(1433,896)" d="m0 0 5 1v13l-1 1-14-1-1-11 9-2z" fill="#272626"/>
<path transform="translate(1161,896)" d="m0 0h6v14l-1 1-13-1-1-1-1-10 4-1 2 1z" fill="#272626"/>
<path transform="translate(540,949)" d="m0 0 17 1h18l7 2-1 2h-32l-8-3z" fill="#272626"/>
<path transform="translate(526,948)" d="m0 0h2l-1 4h-34l1-2 7-1h18z" fill="#272626"/>
<path transform="translate(366,950)" d="m0 0h29v2l-2 1h-25l-5-1z" fill="#272626"/>
<path transform="translate(357,948)" d="m0 0 4 2-1 3-16-1v-3z" fill="#272626"/>
<path transform="translate(1282,203)" d="m0 0h8l2 4-4 2-5-3z" fill="#272626"/>
<path transform="translate(444,947)" d="m0 0 5 2v3l-4 1-3-3z" fill="#272626"/>
</svg>
